Coordinates
version=1
nRows=54
nColumns=12
inDegrees=yes

Units are S.I. units (second, meters, Newtons, ...)
Angles are in degrees

endheader
time	SC_y	SC_z	SC_x	AC_y	AC_z	AC_x	GH_y	GH_z	GH_yy	EL_x	PS_y
       0.0              -17.78          22.92          60.65          55.81         -17.15          17.49          13.53          67.35          76.19          59.42          35.82
   0.01755              -17.78          22.92          60.64          55.81         -17.15          17.49          13.53          67.36          76.16          59.42          35.83
    0.0351              -17.78          22.92          60.64          55.81         -17.14          17.49          13.52          67.36          76.14          59.42          35.85
   0.05266              -17.78          22.92          60.64          55.81         -17.14          17.48          13.52          67.36          76.11          59.43          35.87
   0.07021              -17.78          22.92          60.63          55.81         -17.14          17.48          13.51          67.37          76.08          59.43           35.9
   0.08776              -17.78          22.92          60.63          55.82         -17.14          17.48           13.5          67.37          76.04          59.43          35.92
    0.1053              -17.78          22.92          60.62          55.82         -17.14          17.48          13.49          67.37          76.01          59.44          35.94
    0.1229              -17.79          22.92          60.62          55.82         -17.13          17.47          13.48          67.38          75.97          59.44          35.97
    0.1404              -17.79          22.92          60.61          55.82         -17.13          17.47          13.48          67.38          75.93          59.44           36.0
     0.158              -17.79          22.92          60.61          55.82         -17.13          17.47          13.47          67.39          75.89          59.45          36.03
    0.1755              -17.79          22.92           60.6          55.82         -17.12          17.46          13.46          67.39          75.84          59.45          36.06
    0.1931              -17.79          22.92           60.6          55.83         -17.12          17.46          13.44           67.4          75.79          59.46          36.09
    0.2106              -17.79          22.92          60.59          55.83         -17.12          17.46          13.43           67.4          75.73          59.46          36.13
    0.2282              -17.79          22.92          60.58          55.83         -17.11          17.45          13.42          67.41          75.68          59.47          36.17
    0.2457              -17.79          22.92          60.58          55.83         -17.11          17.45           13.4          67.42          75.61          59.47          36.21
    0.2633               -17.8          22.92          60.57          55.84          -17.1          17.44          13.39          67.42          75.54          59.48          36.26
    0.2808               -17.8          22.92          60.56          55.84          -17.1          17.44          13.37          67.43          75.47          59.49          36.31
    0.2984               -17.8          22.92          60.55          55.84         -17.09          17.43          13.35          67.44          75.39          59.49          36.37
    0.3159               -17.8          22.92          60.54          55.84         -17.09          17.43          13.33          67.45           75.3           59.5          36.43
    0.3335              -17.81          22.92          60.53          55.85         -17.08          17.42          13.31          67.46           75.2          59.51           36.5
     0.351              -17.81          22.92          60.52          55.85         -17.07          17.41          13.29          67.47           75.1          59.52          36.57
    0.3686              -17.81          22.91           60.5          55.86         -17.07           17.4          13.26          67.48          74.98          59.53          36.65
    0.3861              -17.82          22.91          60.49          55.86         -17.06          17.39          13.23           67.5          74.85          59.55          36.74
    0.4037              -17.82          22.91          60.47          55.87         -17.05          17.38           13.2          67.51          74.71          59.56          36.84
    0.4212              -17.82          22.91          60.45          55.87         -17.04          17.37          13.17          67.53          74.55          59.57          36.95
    0.4388              -17.83          22.91          60.43          55.88         -17.02          17.36          13.13          67.55          74.37          59.59          37.07
    0.4563              -17.83          22.91          60.41          55.89         -17.01          17.34          13.08          67.57          74.17          59.61          37.21
    0.4739              -17.84          22.91          60.38           55.9         -16.99          17.33          13.03           67.6          73.95          59.63          37.36
    0.4915              -17.85           22.9          60.35          55.91         -16.98          17.31          12.97          67.63          73.69          59.65          37.54
     0.509              -17.85           22.9          60.31          55.92         -16.96          17.29          12.91          67.66           73.4          59.68          37.74
    0.5266              -17.86           22.9          60.28          55.93         -16.93          17.26          12.84          67.69          73.08          59.71          37.96
    0.5441              -17.87           22.9          60.23          55.95         -16.91          17.24          12.75          67.73           72.7          59.75          38.22
    0.5617              -17.89          22.89          60.18          55.96         -16.88          17.21          12.65          67.78          72.26          59.79          38.52
    0.5792               -17.9          22.89          60.12          55.98         -16.84          17.17          12.54          67.84          71.76          59.84          38.87
    0.5968              -17.92          22.88          60.05          56.01          -16.8          17.13          12.41           67.9          71.17          59.89          39.28
    0.6143              -17.93          22.88          59.97          56.03         -16.76          17.08          12.25          67.98          70.47          59.96          39.76
    0.6319              -17.96          22.87          59.87          56.07          -16.7          17.02          12.06          68.07          69.64          60.03          40.33
    0.6494              -17.98          22.86          59.75          56.11         -16.63          16.94          11.84          68.17          68.65          60.13          41.02
     0.667              -18.02          22.85          59.61          56.15         -16.55          16.86          11.57          68.31          67.45          60.24          41.85
    0.6845              -18.06          22.84          59.43          56.21         -16.45          16.75          11.24          68.47          65.98          60.38          42.86
    0.7021               -18.1          22.83          59.22          56.28         -16.32          16.62          10.84          68.66          64.17          60.55          44.11
    0.7196              -18.17          22.81          58.95          56.37         -16.17          16.46          10.33          68.91          61.91          60.76          45.67
    0.7372              -18.24          22.79          58.61          56.48         -15.97          16.25          9.691          69.22          59.06          61.03          47.63
    0.7547              -18.34          22.76          58.18          56.63         -15.72          15.99          8.879          69.61          55.44          61.37          50.12
    0.7723              -18.47          22.72          57.63          56.81          -15.4          15.65           7.84          70.12          50.81           61.8          53.32
    0.7898              -18.63          22.67          56.92          57.04          -15.0          15.22          6.507          70.77          44.87          62.36          57.42
    0.8074              -18.83          22.61          56.02          57.34         -14.47          14.67          4.804          71.59          37.27          63.07          62.65
    0.8249              -19.09          22.53          54.89          57.72         -13.82          13.98          2.662          72.63          27.73          63.97          69.23
    0.8425               -19.4          22.44          53.51          58.17         -13.02          13.14        0.05263           73.9           16.1          65.06          77.25
      0.86              -19.77          22.33          51.91           58.7         -12.09          12.16         -2.972          75.37          2.613          66.32          86.55
    0.8776              -20.16          22.21          50.17          59.28         -11.09           11.1         -6.248          76.96         -11.99          67.69          96.62
    0.8951              -20.56          22.09          48.44          59.85         -10.09          10.04         -9.523          78.55         -26.59          69.06          106.7
    0.9127              -20.92          21.98          46.84          60.38         -9.159          9.067         -12.55          80.02         -40.07          70.33          116.0
    0.9303              -21.23          21.89          45.45          60.84          -8.36          8.224         -15.16          81.29          -51.7          71.42          124.0
